<?xml version="1.0" encoding="utf-8"?>
<!-- Generator: Adobe Illustrator 22.1.0, SVG Export Plug-In . SVG Version: 6.00 Build 0)  -->
<svg version="1.0" id="图层_1" xmlns="http://www.w3.org/2000/svg" xmlns:xlink="http://www.w3.org/1999/xlink" x="0px" y="0px"
	 viewBox="0 0 1070 102" style="enable-background:new 0 0 1070 102;" xml:space="preserve">
<style type="text/css">
	.st0{fill:#002D74;}
	.st1{fill:#C30D23;}
</style>
<g>
	<path id="XMLID_8_" class="st0" d="M486.4,31.1v-16h4.6c2.9,0,4.2,0.2,4,0.5c0,0.2,0,0.5,0,1.1c-0.4,1.1-0.5,2.3-0.5,3.7v10.7h4.3
		v7h-4.3v36.6h-8.1V38.1h-7v-7H486.4z M514.1,19.6v-5.3h4c3.2,0,4.7,0.2,4.3,0.5c0.2,0.2,0.2,0.4,0,0.8c-0.2,0.7-0.4,1.4-0.5,2.1
		v1.9h5.1c0-0.2-0.4-0.8-1.1-1.9c-0.5-0.7-0.9-1.2-1.1-1.6l7.3-3.5c2.5,4.1,3.8,6.3,3.8,6.7h4.6v6.1h-18.6v2.9h14.8v24.6H534v2.4
		h8.9v5.6H534v9.4c1.1,4.1-3.7,6-14.3,5.6c0.4-2.7-0.4-5.4-2.2-8.3c6.1,0.4,8.7-0.5,7.8-2.7v-4h-15.1c0.5,0.7,1.5,2.3,3,4.8
		c0.5,1.1,1,1.9,1.3,2.4l-7.3,3.2c-2-3.6-3.6-6.2-4.8-7.8l5.9-2.7h-11.3v-5.6h28.3v-3.2h2.7V49h-6.2v4h-7.8v-4h-5.7v3.7h-7.5V28.5
		h13.2v-2.9h-15.9v-5.9H514.1z M514.1,33.5h-5.7v2.9h5.7V33.5z M514.1,44.2v-2.9h-5.7v2.9H514.1z M528.1,36.5v-2.9h-6.2v2.9H528.1z
		 M528.1,41.3h-6.2v2.9h6.2V41.3z"/>
	<path id="XMLID_4_" class="st0" d="M416,26.3h19.4V13.7h8.9V17h22.1v6.7h-22.1v2.7H472c-0.7,5.2-1.5,9.4-2.4,12.6l-8.3-0.8l1.1-4.8
		h-17.2v3.5l13.7-1.3l0.5,4.8c1.8,1.1,4.1,2.1,7,3.2c-0.7,5.5-3.5,8.2-8.3,8h-16.4c-3.4,0.2-5-1.6-4.8-5.3v-2.4l-10,1.1l-0.5-6.4
		l10.5-0.8v-4.3h-12.4v13.6c-0.2,11.2-2.2,20.6-6.2,28.1c-3.4-1.8-6.1-2.9-8.1-3.2l0.3-0.5c3.8-7,5.7-15.1,5.7-24.3V26.3z
		 M420.6,70.7l0.8-0.3c6.3-1.6,9.4-5.9,9.4-12.8v-4h24.8v12c-0.4,1.6,0.4,2.3,2.2,2.1h3.5c2.2,0,3.2-2.1,3.2-6.4
		c3.2,1.1,6.1,1.9,8.6,2.4c-0.5,8-3.1,11.8-7.8,11.2h-11.8c-4.7,0.2-6.9-1.9-6.7-6.2v-8.6h-7.5c-0.5,5-1.9,8.6-4,10.7
		c-2,2.1-4.8,4-8.6,5.6C425.1,74.8,423.1,72.8,420.6,70.7z M446.4,45.3h7.8c2,0,3-1.2,3.2-3.5l-12.4,1.1
		C444.9,44.7,445.4,45.5,446.4,45.3z"/>
	<path id="XMLID_18_" class="st0" d="M399.8,47.5c0,8.7-2.5,15.7-7.5,20.9c-5,5.2-11.8,7.9-20.4,7.9c-8.7,0-15.6-2.7-20.7-8
		c-5.1-5.3-7.6-12.3-7.6-20.8c0-8.6,2.5-15.6,7.5-20.9c5-5.3,11.9-8,20.7-8c8.8,0,15.7,2.7,20.7,8.1C397.4,32,399.8,38.9,399.8,47.5
		z M385,47.6c0-11.1-4.4-16.7-13.2-16.7c-8.9,0-13.3,5.6-13.3,16.7c0,11.1,4.4,16.7,13.3,16.7C380.6,64.3,385,58.7,385,47.6z"/>
	<path id="XMLID_21_" class="st0" d="M342,47.1c0,6.4-1,11.8-3,16.2c-1.9,4.1-4.8,7.4-8.7,9.8s-7.9,3.6-12,3.6
		c-6.7,0-11.8-2.8-15.2-8.5h-0.5V75h-13.8V0.9h14.3v26.4c4-5.8,9.4-8.7,16.2-8.7h0.1c7.5,0.1,13.3,3.1,17.3,9
		C340.2,32.7,342,39.2,342,47.1z M327.2,47.9c0-11.2-4.2-16.9-12.5-16.9c-8.1,0-12.2,5.9-12.2,17.7c0,4.9,1.3,8.9,3.8,11.8
		c2.3,2.7,5.2,4,8.5,4c3.4,0,6.2-1.4,8.5-4.1C325.9,57.4,327.2,53.2,327.2,47.9z"/>
	<path id="XMLID_70_" class="st0" d="M284.3,47.5c0,8.7-2.5,15.7-7.5,20.9c-5,5.2-11.8,7.9-20.4,7.9c-8.7,0-15.6-2.7-20.7-8
		c-5.1-5.3-7.6-12.3-7.6-20.8c0-8.6,2.5-15.6,7.5-20.9c5-5.3,11.9-8,20.7-8c8.8,0,15.7,2.7,20.7,8.1C281.9,32,284.3,38.9,284.3,47.5
		z M269.6,47.6c0-11.1-4.4-16.7-13.2-16.7c-8.9,0-13.3,5.6-13.3,16.7c0,11.1,4.4,16.7,13.3,16.7C265.2,64.3,269.6,58.7,269.6,47.6z"
		/>
	<path id="XMLID_82_" class="st0" d="M228.1,33.6c-1.4-0.2-2.7-0.3-4-0.3c-8.9,0-13.3,4.4-13.3,13.2V75h-14.5V20.1H210v4.2
		c0,1.6,0,2.4,0.1,2.4c0.1-0.1,0.2-0.1,0.3-0.2c2.7-2.9,4.9-4.7,6.4-5.6c2.4-1.4,5.5-2.1,9.4-2.1c0.6,0,1.3,0,2,0V33.6z"/>
	<path id="XMLID_121_" class="st0" d="M192.4,51.4h-37.8c0.3,4.5,1.8,8,4.3,10.4c2.2,2,4.9,3.1,8,3.1c2.3,0,4.4-0.5,6.3-1.6
		c1.9-1.1,3.1-2.6,3.6-4.4h14.8c-1.6,5.6-4.6,9.9-8.9,12.9c-4.3,3.1-9.3,4.6-15.2,4.6c-18.3,0-27.5-10-27.5-29.9
		c0-8.4,2.3-15.2,7-20.2c4.6-5,11.1-7.6,19.5-7.6C183.8,18.6,192.4,29.5,192.4,51.4z M177.5,42.2c-0.3-3.7-1.6-6.6-3.8-8.8
		c-2.2-2.1-4.7-3.2-7.5-3.2c-2.7,0-5.1,1-7.1,3c-2.2,2.1-3.6,5.1-4.1,9H177.5z"/>
	<path id="XMLID_124_" class="st0" d="M137.1,78.1c0,7.3-2.8,13.1-8.5,17.5c-5.2,3.9-11.5,5.9-18.8,5.9c-7.2,0-13.3-1.9-18.2-5.8
		c-5.5-4.3-8.2-10.2-8.2-17.7h13.5c0,3.5,1.2,6.3,3.7,8.2c2.2,1.8,5,2.7,8.3,2.7c3.6,0,6.8-1,9.5-3.1c2.9-2.3,4.4-5.4,4.4-9.2v-8.5
		c-1,2.5-2.9,4.4-5.7,5.8c-2.7,1.4-5.9,2.1-9.4,2.1c-5.6,0-10.6-1.6-14.8-4.7c-4.9-3.6-7.7-8.7-8.6-15c-0.6-4.8-0.9-8.4-0.9-10.7
		c0-4.7,1-9.3,3.1-13.7c1.9-4.1,4.8-7.4,8.7-9.8c3.9-2.4,7.9-3.6,12.1-3.6c6.8,0,11.8,2.8,15.2,8.5c0.1,0,0.1,0,0.2,0.1
		c0-0.1,0-1,0-2.6v-4.3h14.4V78.1z M123.1,48.8c0-11.8-4.1-17.7-12.3-17.7c-8.3,0-12.4,5.6-12.4,16.9c0,5.3,1.3,9.5,3.9,12.6
		c2.3,2.7,5.1,4.1,8.5,4.1c3.3,0,6.1-1.3,8.5-4C121.8,57.7,123.1,53.8,123.1,48.8z"/>
	<rect id="XMLID_128_" x="63.9" y="20.1" class="st0" width="14.5" height="54.9"/>
	<circle class="st1" cx="71.2" cy="7.6" r="7"/>
	<path id="XMLID_130_" class="st0" d="M60.4,14H38.1v61H22.5V14H0.2V0.9h60.2V14z"/>
</g>
<rect x="586.9" y="6.4" class="st0" width="2" height="74"/>
<g>
	<path class="st0" d="M631.5,68.4l7.8-5.6c5.4,5.4,12.8,5.6,18-1.2c2.8-5.3,0.8-11.8-4.4-14.5l-11-6.2c-10-5.2-13.6-17.3-8.3-27.3
		c6.8-12.7,25.5-14,34.2-2.4l-7.8,5.6c-5.4-5.4-12.8-5.6-18,1.2c-2.8,5.3-0.8,11.8,4.4,14.5l11,6.2c10,5.2,13.6,17.3,8.3,27.3
		C658.8,78.8,640.3,80,631.5,68.4z"/>
	<path class="st0" d="M711.6,61.9l6.8,6.8c-9.3,9.2-24.4,9.2-33.7,0c-9.2-9.3-9.2-24.4,0-33.7c9.3-9.2,24.4-9.2,33.7,0
		c5.8,5.9,8,14.1,6.6,21.6H688c0.8,2,1.9,3.8,3.4,5.3C697,67.5,706,67.5,711.6,61.9z M691.4,41.7c-1.5,1.6-2.7,3.4-3.4,5.3h27
		c-0.7-1.9-1.8-3.7-3.4-5.3C706,36.1,697,36.1,691.4,41.7z"/>
	<path class="st0" d="M744.4,51.2v24.4h-9.5V28h4.8l4.8,4.8c4-2.9,8.8-4.8,14.3-4.8c13.1,0,23.8,10.7,23.8,23.8v23.8h-9.5V51.8
		c0-7.9-6.4-14.3-14.3-14.3C750.9,37.5,744.7,43.6,744.4,51.2z"/>
	<path class="st0" d="M801.5,28h9.5v9.5h-9.5v17.8c0,5.9,4.8,10.7,10.7,10.7v9.5c-11.2,0-20.2-9-20.2-20.3V4.2h9.5V28z"/>
	<path class="st0" d="M824.4,4.2c3.2,0,5.8,2.6,5.8,5.8c0,3.1-2.6,5.7-5.8,5.7c-3.1,0-5.7-2.6-5.7-5.7
		C818.7,6.8,821.2,4.2,824.4,4.2z M819.6,28h9.5v47.6h-9.5V28z"/>
	<path class="st0" d="M875.7,51.8c0-8.2-6.6-14.3-14.3-14.3s-14,6.1-14.3,13.7v24.4h-9.5V28h4.8l4.8,4.8c4-2.9,8.8-4.8,14.3-4.8
		c7.7,0,14.6,3.8,19,9.5c4.3-5.7,11.2-9.5,19-9.5c13.1,0,23.8,10.7,23.8,23.8v23.8h-9.5V51.8c0-7.9-6.4-14.3-14.3-14.3
		c-7.9,0-14.3,6.4-14.3,14.3v23.8h-9.5V51.8z"/>
	<path class="st0" d="M966.7,61.9l6.8,6.8c-9.3,9.2-24.4,9.2-33.7,0c-9.2-9.3-9.2-24.4,0-33.7c9.3-9.2,24.4-9.2,33.7,0
		c5.8,5.9,8,14.1,6.6,21.6h-36.9c0.8,2,1.9,3.8,3.4,5.3C952.1,67.5,961.1,67.5,966.7,61.9z M946.5,41.7c-1.5,1.6-2.7,3.4-3.4,5.3h27
		c-0.7-1.9-1.8-3.7-3.4-5.3C961.1,36.1,952.1,36.1,946.5,41.7z"/>
	<path class="st0" d="M999.5,51.2v24.4H990V28h4.8l4.8,4.8c4-2.9,8.8-4.8,14.3-4.8c13.1,0,23.8,10.7,23.8,23.8v23.8h-9.5V51.8
		c0-7.9-6.4-14.3-14.3-14.3C1006.1,37.5,999.8,43.6,999.5,51.2z"/>
	<path class="st0" d="M1056.6,28h9.5v9.5h-9.5v17.8c0,5.9,4.8,10.7,10.7,10.7v9.5c-11.2,0-20.2-9-20.2-20.3V4.2h9.5V28z"/>
</g>
</svg>
